<svg width="37" height="38" viewBox="0 0 37 38" fill="none" xmlns="http://www.w3.org/2000/svg">
<path d="M13.3668 20.9644C13.3668 20.4883 12.9824 20.1027 12.508 20.1027H9.51087C9.03703 20.1027 8.65248 20.4883 8.65248 20.9644V23.9738C8.65248 24.4505 9.03703 24.8363 9.51087 24.8363H12.508C12.9824 24.8363 13.3668 24.4505 13.3668 23.9738V20.9644Z" fill="#BDBDBD"/>
<path d="M20.857 20.9644C20.857 20.4883 20.4724 20.1027 19.999 20.1027H17.0015C16.5276 20.1027 16.1431 20.4883 16.1431 20.9644V23.9738C16.1431 24.4505 16.5276 24.8363 17.0015 24.8363H19.999C20.4724 24.8363 20.857 24.4505 20.857 23.9738V20.9644Z" fill="#BDBDBD"/>
<path d="M28.3475 20.9644C28.3475 20.4883 27.963 20.1027 27.4891 20.1027H24.492C24.0176 20.1027 23.6332 20.4883 23.6332 20.9644V23.9738C23.6332 24.4505 24.0176 24.8363 24.492 24.8363H27.4891C27.963 24.8363 28.3475 24.4505 28.3475 23.9738V20.9644Z" fill="#BDBDBD"/>
<path d="M13.3668 28.4872C13.3668 28.0104 12.9824 27.625 12.508 27.625H9.51087C9.03703 27.625 8.65248 28.0104 8.65248 28.4872V31.4961C8.65248 31.9724 9.03703 32.3581 9.51087 32.3581H12.508C12.9824 32.3581 13.3668 31.9723 13.3668 31.4961V28.4872Z" fill="#BDBDBD"/>
<path d="M20.857 28.4872C20.857 28.0104 20.4724 27.625 19.999 27.625H17.0015C16.5276 27.625 16.1431 28.0104 16.1431 28.4872V31.4961C16.1431 31.9724 16.5276 32.3581 17.0015 32.3581H19.999C20.4724 32.3581 20.857 31.9723 20.857 31.4961V28.4872Z" fill="#BDBDBD"/>
<path d="M28.3475 28.4872C28.3475 28.0104 27.963 27.625 27.4895 27.625H24.492C24.0176 27.625 23.6332 28.0104 23.6332 28.4872V31.4961C23.6332 31.9724 24.0176 32.3581 24.492 32.3581H27.4895C27.963 32.3581 28.3475 31.9723 28.3475 31.4961V28.4872Z" fill="#BDBDBD"/>
<path d="M33.7066 4.23116V8.82787C33.7066 10.9055 32.0283 12.5798 29.9597 12.5798H27.5961C25.5274 12.5798 23.8268 10.9055 23.8268 8.82787V4.21465H13.1732V8.82787C13.1732 10.9055 11.4727 12.5798 9.40429 12.5798H7.04018C4.9717 12.5798 3.29344 10.9055 3.29344 8.82787V4.23116C1.48557 4.28588 0 5.7882 0 7.63475V34.5737C0 36.4549 1.51835 38 3.39165 38H33.6084C35.4789 38 37 36.4517 37 34.5737V7.63475C37 5.7882 35.5145 4.28588 33.7066 4.23116ZM32.6088 32.8961C32.6088 33.7091 31.9524 34.3687 31.1425 34.3687H5.79289C4.98302 34.3687 4.32663 33.7091 4.32663 32.8961V18.9812C4.32663 18.1679 4.98294 17.5083 5.79289 17.5083H31.1425C31.9523 17.5083 32.6087 18.1679 32.6087 18.9812L32.6088 32.8961Z" fill="#BDBDBD"/>
<path d="M7.03188 10.1155H9.36988C10.0795 10.1155 10.6549 9.53851 10.6549 8.82585V1.29012C10.6549 0.577372 10.0795 0 9.36988 0H7.03188C6.32216 0 5.74685 0.577372 5.74685 1.29012V8.82585C5.74685 9.53851 6.32216 10.1155 7.03188 10.1155Z" fill="#BDBDBD"/>
<path d="M27.566 10.1155H29.904C30.6132 10.1155 31.1886 9.53851 31.1886 8.82585V1.29012C31.1887 0.577372 30.6133 0 29.904 0H27.566C26.8565 0 26.2811 0.577372 26.2811 1.29012V8.82585C26.2811 9.53851 26.8565 10.1155 27.566 10.1155Z" fill="#BDBDBD"/>
</svg>
