<svg width="233" height="233" viewBox="0 0 233 233" fill="none" xmlns="http://www.w3.org/2000/svg">
<g clip-path="url(#clip0)">
<path d="M82.0752 155.188V155.173L82.0848 155.183L82.0943 155.178V155.187C99.3413 178.031 133.651 178.031 150.897 155.192L150.917 155.173V155.187V129.979H82.0557V155.192L82.0752 155.188Z" fill="#F8B64C"/>
<path d="M82.4336 89.7779C83.1908 98.4912 78.9627 105.981 72.9921 106.501C67.0119 107.025 61.551 100.384 60.7791 91.671C60.0219 82.9576 64.25 75.4725 70.2302 74.9482C76.2058 74.424 81.6668 81.0645 82.4336 89.7779Z" fill="#F8B64C"/>
<path d="M172.265 91.671C171.508 100.384 166.037 107.025 160.062 106.501C154.081 105.976 149.848 98.4912 150.62 89.7779C151.377 81.0645 156.838 74.424 162.823 74.9482C168.794 75.4679 173.027 82.9576 172.265 91.671Z" fill="#F8B64C"/>
<path d="M166.794 62.8519V79.3562C166.794 79.89 166.794 80.4243 166.736 80.9581C166.687 83.9193 166.498 86.88 166.109 89.7925C165.381 95.5206 164.168 101.151 162.469 106.588C158.343 119.743 151.406 131.878 142.028 142.121L137.222 147.363C132.863 152.169 126.64 154.887 120.136 154.887H112.854C106.398 154.887 100.19 152.12 95.8162 147.363L91.0593 142.121C84.4138 134.888 78.9724 126.636 74.9532 117.85C70.8661 109.015 68.1575 99.5498 66.9875 89.793C66.6475 87.0261 66.4 84.2105 66.4 81.3954C66.4 81.3467 66.3513 81.3467 66.3513 81.2985C66.3026 80.6673 66.3026 79.9878 66.3026 79.3566C66.2539 78.9685 66.2539 78.6285 66.2539 78.2449V63.1486C66.2539 58.3917 66.9383 53.7317 68.1957 49.3629C74.1663 28.3442 93.5295 12.908 116.538 12.908C139.498 12.908 158.871 28.3442 164.842 49.3629C166.114 53.6288 166.794 58.1919 166.794 62.8519Z" fill="#FFD15C"/>
<g opacity="0.1">
<g opacity="0.1">
<path opacity="0.1" d="M142.033 142.12L137.228 147.363C132.868 152.169 126.646 154.887 120.141 154.887H112.86C109.724 154.887 106.651 154.207 103.807 152.989L127.747 170.774C136.499 168.43 144.64 163.338 150.707 155.416C150.775 155.329 150.829 155.256 150.897 155.168L150.916 130.534C148.232 134.587 145.339 138.509 142.033 142.12Z" fill="#40596B"/>
</g>
</g>
<path d="M174.464 45.1926H58.6387V63.5464H174.464V45.1926Z" fill="#40596B"/>
<path d="M174.464 50.6775H58.6387V54.3714H174.464V50.6775Z" fill="#FFD15C"/>
<path d="M190.099 36.4886C190.157 40.9834 186.239 44.8962 181.395 45.1874H51.6624C46.7498 44.9012 42.8325 40.9839 42.959 36.4886C42.959 33.3964 43.3668 30.9403 45.9348 27.261C48.2648 23.8775 51.2988 21.0137 54.6964 18.7369C73.3705 6.24231 94.923 0 116.529 0C138.072 0 159.677 6.24731 178.308 18.7419C181.691 21.0187 184.725 23.8825 187.07 27.266C189.633 30.9453 190.04 33.3968 190.099 36.4886Z" fill="#CDD6E0"/>
<path d="M189.999 38.0698C190.058 41.6507 186.144 44.768 181.304 45H51.6979C46.7901 44.772 42.8766 41.6511 43.003 38.0698C43.003 35.6063 43.4103 33.6496 45.9758 30.7183C48.3036 28.0228 51.3346 25.7412 54.7289 23.9274C73.3849 13.9731 94.9164 9 116.501 9C138.023 9 159.608 13.9771 178.22 23.9314C181.6 25.7452 184.631 28.0267 186.973 30.7223C189.534 33.6536 189.941 35.6066 189.999 38.0698Z" fill="#EFF2F3"/>
<path d="M174.439 59.7305C176.857 65.6042 174.536 72.3903 168.969 75.453C161.139 79.7685 149.256 82.3847 141.198 82.3847H91.8603C83.7927 82.3847 71.9147 79.7685 64.0896 75.453C58.5268 72.3898 56.1918 65.6037 58.6091 59.7305H174.439Z" fill="#334A5E"/>
<path d="M233 197.953V233H0V197.953C0 188.682 5.67937 180.333 14.3245 176.983L58.6382 159.557L63.4438 157.664L101.792 199.798L113.83 175.284V175.236L116.5 169.75L119.223 175.235L131.261 199.797L169.556 157.663L174.269 159.507L174.366 159.556L218.738 176.982C227.321 180.386 233 188.686 233 197.953Z" fill="#EFF2F3"/>
<path d="M17.4831 198.926L61.1367 181.503L53.9602 163.522L10.3065 180.945L17.4831 198.926Z" fill="#40596B"/>
<path d="M21.8111 197.187L26.7969 195.197L19.6189 177.219L14.6331 179.21L21.8111 197.187Z" fill="#FFD15C"/>
<path d="M30.6617 193.658L35.6475 191.667L28.4695 173.689L23.4837 175.68L30.6617 193.658Z" fill="#FFD15C"/>
<path d="M223.296 180.95L179.643 163.527L172.466 181.508L216.12 198.931L223.296 180.95Z" fill="#40596B"/>
<path d="M218.974 179.214L213.998 177.224L206.808 195.198L211.784 197.189L218.974 179.214Z" fill="#FFD15C"/>
<path d="M210.122 175.7L205.137 173.709L197.959 191.687L202.945 193.678L210.122 175.7Z" fill="#FFD15C"/>
<path d="M169.556 157.663L133.737 204.657L116.5 169.755L120.917 167.275L150.867 150.382H150.916L150.964 150.338L169.556 157.663Z" fill="#CDD6E0"/>
<path d="M63.4434 157.663L99.3208 204.657L116.5 169.755L112.082 167.275L82.1321 150.382L82.0351 150.338L63.4434 157.663Z" fill="#CDD6E0"/>
<path d="M174.264 159.508L132.863 213.826L113.825 175.284V175.24L116.5 169.755L119.223 175.24L131.261 199.802L169.556 157.663L174.264 159.508Z" fill="#E6EAED"/>
<path d="M58.876 159.508L100.277 213.826L119.305 175.284V175.24L116.64 169.755L113.922 175.24L101.879 199.802L63.5892 157.663L58.876 159.508Z" fill="#E6EAED"/>
<path d="M99.3213 233L109.122 210.671L104.894 204.463L101.797 199.803L113.835 175.24L116.5 169.755L119.223 175.24V175.289L131.261 199.803L128.106 204.414L123.878 210.671L133.737 233H99.3213Z" fill="#40596B"/>
<path d="M131.261 199.803L128.106 204.409L116.549 180.774L104.894 204.463L101.797 199.803L113.826 175.24L116.5 169.75L119.223 175.24V175.284L131.261 199.803Z" fill="#334A5E"/>
</g>
<defs>
<clipPath id="clip0">
<rect width="233" height="233" fill="white"/>
</clipPath>
</defs>
</svg>
