<svg width="70" height="62" viewBox="0 0 70 62" fill="none" xmlns="http://www.w3.org/2000/svg">
<path d="M41.8778 7.83034e-06H28.1225C27.7104 -0.000913386 27.3022 0.0794578 26.9212 0.23652C26.5402 0.393582 26.1939 0.62425 25.9022 0.915316C25.6105 1.20638 25.379 1.55213 25.2211 1.93277C25.0632 2.3134 24.9819 2.72144 24.9819 3.13353V5.94717H45.0019V3.13353C45.002 2.30409 44.6731 1.50847 44.0875 0.921092C43.5018 0.33371 42.7072 0.0024801 41.8778 7.83034e-06Z" fill="#FABC1F"/>
<path d="M29.2339 1.06226H27.5854V2.71074H29.2339V1.06226Z" fill="#030303"/>
<path d="M27.5875 2.7085H25.939V4.35698H27.5875V2.7085Z" fill="#030303"/>
<path d="M32.5284 1.06226H30.8799V2.71074H32.5284V1.06226Z" fill="#030303"/>
<path d="M30.8824 2.7085H29.2339V4.35698H30.8824V2.7085Z" fill="#030303"/>
<path d="M35.8233 1.06226H34.1748V2.71074H35.8233V1.06226Z" fill="#030303"/>
<path d="M34.1768 2.7085H32.5283V4.35698H34.1768V2.7085Z" fill="#030303"/>
<path d="M39.1202 1.06226H37.4717V2.71074H39.1202V1.06226Z" fill="#030303"/>
<path d="M37.4717 2.7085H35.8232V4.35698H37.4717V2.7085Z" fill="#030303"/>
<path d="M42.4146 1.06226H40.7661V2.71074H42.4146V1.06226Z" fill="#030303"/>
<path d="M40.7662 2.7085H39.1177V4.35698H40.7662V2.7085Z" fill="#030303"/>
<path d="M44.0611 2.7085H42.4126V4.35698H44.0611V2.7085Z" fill="#030303"/>
<path d="M64.081 23.2002C64.081 23.2002 63.7308 24.1015 62.3975 24.1015C62.3846 24.7276 62.4346 25.3534 62.5469 25.9695C62.5469 25.9695 63.5743 25.4348 64.1627 25.7033C64.237 24.8687 64.2095 24.0282 64.081 23.2002Z" fill="#FABC1F"/>
<path d="M67.7611 20.9634C65.1622 20.9634 62.9043 22.2616 63.2989 24.8278C63.6398 27.032 70.0003 26.2101 70.0003 24.3608C70.0003 22.5115 69.7575 20.9634 67.7611 20.9634Z" fill="#FABC1F"/>
<path d="M5.91873 23.2002C5.91873 23.2002 6.26898 24.1015 7.60224 24.1015C7.61518 24.7276 7.56511 25.3534 7.4528 25.9695C7.4528 25.9695 6.42308 25.4254 5.83467 25.6846C5.76274 24.8561 5.79097 24.0219 5.91873 23.2002Z" fill="#FABC1F"/>
<path d="M2.23923 20.9634C4.83805 20.9634 7.09597 22.2616 6.70136 24.8278C6.36045 27.032 0 26.2101 0 24.3608C0 22.5115 0.231162 20.9634 2.23923 20.9634Z" fill="#FABC1F"/>
<path d="M62.9606 40.0608H58.7506C57.492 40.0608 56.4717 41.0811 56.4717 42.3397V58.897C56.4717 60.1556 57.492 61.1759 58.7506 61.1759H62.9606C64.2192 61.1759 65.2395 60.1556 65.2395 58.897V42.3397C65.2395 41.0811 64.2192 40.0608 62.9606 40.0608Z" fill="#030303"/>
<path d="M7.03993 61.176H11.2499C12.5085 61.176 13.5288 60.1557 13.5288 58.8971L13.5288 42.3398C13.5288 41.0812 12.5085 40.0609 11.2499 40.0609H7.03993C5.78132 40.0609 4.761 41.0812 4.761 42.3398L4.761 58.8971C4.761 60.1557 5.78132 61.176 7.03993 61.176Z" fill="#030303"/>
<path d="M3.00288 43.4164C2.68394 41.5746 2.68394 39.6917 3.00288 37.8499C3.64499 34.3824 5.80484 31.8116 6.17143 29.8106C7.19414 24.265 10.818 11.9434 12.6883 9.62477C15.9386 5.60395 17.3209 5.44751 34.9989 5.44751C52.677 5.44751 54.0593 5.60162 57.3072 9.62477C59.1752 11.9434 62.8014 24.265 63.8241 29.8106C64.193 31.8116 66.3506 34.3824 66.9927 37.8499C67.3116 39.6917 67.3116 41.5746 66.9927 43.4164C64.6133 44.5022 56.992 46.0199 35.0036 46.0199C13.0152 46.0199 5.38221 44.5022 3.00288 43.4164Z" fill="#FCDB2C"/>
<path d="M66.9951 43.4163C64.6157 44.5044 56.9944 46.0197 35.006 46.0197C13.0176 46.0197 5.38928 44.5044 3.01695 43.4163C1.93819 43.4163 2.73909 49.0856 3.75246 51.2524C5.69282 55.4063 16.6765 55.8803 35.013 55.8803C53.3495 55.8803 64.3332 55.4133 66.2736 51.2524C67.2729 49.0856 68.0738 43.4163 66.9951 43.4163Z" fill="#FABC1F"/>
<path d="M53.9353 9.99584C50.9559 7.50209 39.3301 7.74026 34.9987 7.74026C30.6673 7.74026 19.0415 7.50676 16.0621 9.99584C11.6163 13.7178 9.3374 29.808 9.3374 29.808H60.6717C60.6717 29.808 58.3717 13.7178 53.9353 9.99584Z" fill="white"/>
<path d="M51.7171 37.9946C52.114 37.3431 61.8812 35.3211 62.6914 35.5546C63.5017 35.7881 64.7649 40.3436 63.95 40.7755C63.1351 41.2075 53.1718 42.7019 52.1374 42.1205C51.5816 41.8146 51.3668 38.562 51.7171 37.9946Z" fill="white"/>
<path d="M18.2852 38.7954C17.8882 38.1439 8.12107 36.1218 7.31084 36.3553C6.50061 36.5888 5.24673 41.1444 6.06864 41.5787C6.89055 42.013 16.8468 43.505 17.8812 42.9236C18.4206 42.6154 18.6308 39.3628 18.2852 38.7954Z" fill="white"/>
<path d="M45.6295 38.8933H24.3673C22.9336 38.8933 22.3289 42.8628 22.4433 43.2434C22.5577 43.624 23.0013 44.2147 34.9984 44.2147C46.9955 44.2147 47.4415 43.6123 47.5535 43.2434C47.6656 42.8744 47.0632 38.8933 45.6295 38.8933Z" fill="#FABC1F"/>
</svg>
