<svg width="123" height="99" viewBox="0 0 123 99" fill="none" xmlns="http://www.w3.org/2000/svg">
<path d="M112.266 31.6451C112.266 31.6451 111.653 33.2242 109.317 33.2242C109.294 34.321 109.382 35.4174 109.579 36.4967C109.579 36.4967 111.379 35.5599 112.41 36.0304C112.54 34.5682 112.491 33.0957 112.266 31.6451Z" fill="#A72126"/>
<path d="M118.713 27.7264C114.16 27.7264 110.204 30.0009 110.895 34.4965C111.493 38.3582 122.636 36.9182 122.636 33.6784C122.636 30.4386 122.21 27.7264 118.713 27.7264Z" fill="#A72126"/>
<path d="M10.3685 31.6451C10.3685 31.6451 10.9821 33.2242 13.3179 33.2242C13.3406 34.321 13.2529 35.4174 13.0561 36.4967C13.0561 36.4967 11.2521 35.5436 10.2212 35.9976C10.0952 34.5462 10.1447 33.0848 10.3685 31.6451Z" fill="#A72126"/>
<path d="M3.92298 27.7264C8.47592 27.7264 12.4316 30.0009 11.7403 34.4965C11.1431 38.3582 0 36.9182 0 33.6784C0 30.4386 0.404979 27.7264 3.92298 27.7264Z" fill="#A72126"/>
<path d="M110.303 61.1836H102.927C100.722 61.1836 98.9346 62.9711 98.9346 65.1761V94.1832C98.9346 96.3883 100.722 98.1758 102.927 98.1758H110.303C112.508 98.1758 114.295 96.3883 114.295 94.1832V65.1761C114.295 62.9711 112.508 61.1836 110.303 61.1836Z" fill="#030303"/>
<path d="M12.3341 98.176H19.7096C21.9146 98.176 23.7021 96.3885 23.7021 94.1835L23.7021 65.1764C23.7021 62.9714 21.9146 61.1839 19.7096 61.1839H12.3341C10.1291 61.1839 8.34158 62.9714 8.34158 65.1764L8.34158 94.1835C8.34158 96.3885 10.1291 98.176 12.3341 98.176Z" fill="#030303"/>
<path d="M5.26184 67.0623C4.70308 63.8355 4.70308 60.5368 5.26184 57.3101C6.38679 51.2354 10.1707 46.7315 10.8129 43.2258C12.6046 33.5104 18.9534 11.9238 22.2301 7.86171C27.9243 0.817534 30.346 0.543457 61.3167 0.543457C92.2873 0.543457 94.709 0.813444 100.399 7.86171C103.672 11.9238 110.025 33.5104 111.816 43.2258C112.463 46.7315 116.242 51.2354 117.367 57.3101C117.926 60.5368 117.926 63.8355 117.367 67.0623C113.199 68.9644 99.8469 71.6234 61.3248 71.6234C22.8028 71.6234 9.43026 68.9644 5.26184 67.0623Z" fill="#E4444A"/>
<path d="M117.37 67.0623C113.202 68.9685 99.8499 71.6234 61.3278 71.6234C22.8057 71.6234 9.44144 68.9685 5.28529 67.0623C3.39539 67.0623 4.7985 76.9945 6.57386 80.7906C9.97323 88.068 29.2159 88.8984 61.3401 88.8984C93.4644 88.8984 112.707 88.0803 116.106 80.7906C117.857 76.9945 119.26 67.0623 117.37 67.0623Z" fill="#A72126"/>
<path d="M94.4907 8.51191C89.271 4.14304 68.9034 4.56029 61.3152 4.56029C53.7269 4.56029 33.3593 4.15122 28.1396 8.51191C20.3509 15.0325 16.3584 43.2215 16.3584 43.2215H106.292C106.292 43.2215 102.263 15.0325 94.4907 8.51191Z" fill="white"/>
<path d="M30.1086 57.4958C26.8195 54.9494 14.3493 51.5323 12.4818 52.0531C10.6142 52.574 7.72405 62.7354 9.61852 63.7041C11.513 64.6729 34.462 68.001 36.8462 66.7041C38.0895 66.0166 31.4243 58.769 30.1086 57.4958Z" fill="white"/>
<path d="M91.8914 57.4958C95.1805 54.9494 107.651 51.5323 109.518 52.0531C111.386 52.574 114.276 62.7354 112.381 63.7041C110.487 64.6729 87.538 68.001 85.1538 66.7041C83.9105 66.0166 90.5757 58.769 91.8914 57.4958Z" fill="white"/>
<path d="M77.8404 65.4074L60.5004 68L43.1604 65.4074C40.822 65.4074 39.8356 56.8982 40.0222 56.0823C40.2088 55.2664 40.9324 54 60.5004 54C80.0684 54 80.7958 55.2914 80.9786 56.0823C81.1614 56.8731 80.1788 65.4074 77.8404 65.4074Z" fill="#A72126"/>
</svg>
