<svg width="70" height="69" viewBox="0 0 70 69" fill="none" xmlns="http://www.w3.org/2000/svg">
<path d="M63.7971 30.5125C63.7971 30.5125 63.4485 31.4095 62.1216 31.4095C62.1087 32.0326 62.1586 32.6554 62.2703 33.2686C62.2703 33.2686 63.2928 32.7364 63.8785 33.0036C63.9523 32.173 63.925 31.3365 63.7971 30.5125Z" fill="#005D4D"/>
<path d="M67.4598 28.2864C64.8733 28.2864 63.7787 29.8782 63.1838 32.0162C62.5889 34.1542 69.6907 33.5081 69.6907 31.6676C69.6907 29.8271 69.449 28.2864 67.4598 28.2864Z" fill="#005D4D"/>
<path d="M5.89352 30.5125C5.89352 30.5125 6.2421 31.4095 7.56903 31.4095C7.58191 32.0326 7.53208 32.6554 7.4203 33.2686C7.4203 33.2686 6.3978 32.7271 5.80986 32.999C5.73717 32.1698 5.76526 31.3349 5.89352 30.5125Z" fill="#005D4D"/>
<path d="M2.23092 28.2864C4.81739 28.2864 5.91193 29.8782 6.50684 32.0162C7.10175 34.1542 0 33.5081 0 31.6676C0 29.8271 0.232387 28.2864 2.23092 28.2864Z" fill="#005D4D"/>
<path d="M64.0298 68.3219H57.1395C56.893 68.3219 56.6565 68.224 56.4822 68.0497C56.3079 67.8753 56.21 67.6389 56.21 67.3924V48.2181C56.21 47.9716 56.3079 47.7352 56.4822 47.5608C56.6565 47.3865 56.893 47.2886 57.1395 47.2886H64.0298C64.2763 47.2886 64.5128 47.3865 64.6871 47.5608C64.8614 47.7352 64.9593 47.9716 64.9593 48.2181V67.3924C64.9593 67.6389 64.8614 67.8753 64.6871 68.0497C64.5128 68.224 64.2763 68.3219 64.0298 68.3219Z" fill="#030303"/>
<path d="M5.65855 68.3219H12.5488C12.7954 68.3219 13.0318 68.224 13.2061 68.0497C13.3804 67.8753 13.4784 67.6389 13.4784 67.3924V48.2181C13.4784 47.9716 13.3804 47.7352 13.2061 47.5608C13.0318 47.3865 12.7954 47.2886 12.5488 47.2886H5.65855C5.41202 47.2886 5.17559 47.3865 5.00126 47.5608C4.82694 47.7352 4.729 47.9716 4.729 48.2181V67.3924C4.729 67.6389 4.82694 67.8753 5.00126 68.0497C5.17559 68.224 5.41202 68.3219 5.65855 68.3219Z" fill="#030303"/>
<path d="M66.6951 45.0947C66.056 41.6414 63.9065 39.0828 63.5393 37.0913C62.5214 31.5721 58.9125 19.3044 57.051 16.9968C53.8185 12.9927 52.4428 12.8394 34.8418 12.8394C17.2408 12.8394 15.8651 12.9927 12.6326 16.9968C10.7735 19.3044 7.16449 31.5721 6.14431 37.0913C5.77714 39.0828 3.62988 41.6437 2.98849 45.0947C2.23323 49.1708 3.34404 53.5466 5.15666 57.4252C7.09012 61.5616 16.5831 63.523 34.8395 63.523C53.0958 63.523 62.5888 61.5616 64.5223 57.4252C66.3396 53.5466 67.4527 49.1708 66.6951 45.0947Z" fill="#219587"/>
<path d="M56.3913 40.3331C54.7646 41.2487 54.1557 42.9638 54.5136 43.8608C54.9296 44.9065 56.4145 45.3992 57.9994 44.8995C59.5843 44.3999 60.96 43.2403 60.8438 41.7693C60.7509 40.4354 58.6594 39.0411 56.3913 40.3331Z" fill="white"/>
<path d="M53.6976 17.3662C50.73 14.8727 39.1572 15.1214 34.8441 15.1214C30.5309 15.1214 18.9581 14.889 15.9928 17.3662C11.5682 21.0728 9.29541 37.0913 9.29541 37.0913H60.4206C60.4206 37.0913 58.1223 21.0728 53.6976 17.3662Z" fill="white"/>
<path d="M50.4119 51.1532C43.7493 50.04 34.8419 50.0586 34.8419 50.0586C34.8419 50.0586 25.9369 50.04 19.272 51.1532C15.1355 51.8503 5.45426 58.564 34.8419 58.564C64.2296 58.564 54.5484 51.8457 50.4119 51.1532Z" fill="#005D4D"/>
<path d="M13.2973 40.3331C14.924 41.2487 15.5328 42.9638 15.1749 43.8608C14.759 44.9065 13.274 45.3992 11.6891 44.8995C10.1043 44.3999 8.72155 43.2403 8.83077 41.7693C8.93999 40.4354 11.0292 39.0411 13.2973 40.3331Z" fill="white"/>
<path d="M34.8415 0C32.7226 0 30.6904 0.841745 29.1921 2.34006C27.6938 3.83838 26.8521 5.87053 26.8521 7.98947C26.8521 14.6752 33.3914 22.8274 34.8415 22.8274C36.2916 22.8274 42.831 14.6752 42.831 7.98947C42.831 5.87053 41.9892 3.83838 40.4909 2.34006C38.9926 0.841745 36.9605 0 34.8415 0V0ZM34.8415 12.7813C33.8933 12.7813 32.9664 12.5001 32.178 11.9733C31.3896 11.4465 30.7752 10.6978 30.4123 9.82179C30.0494 8.94577 29.9545 7.98183 30.1395 7.05186C30.3245 6.12188 30.7811 5.26765 31.4515 4.59717C32.122 3.9267 32.9763 3.4701 33.9062 3.28512C34.8362 3.10013 35.8001 3.19507 36.6762 3.55793C37.5522 3.92079 38.3009 4.53527 38.8277 5.32366C39.3545 6.11205 39.6357 7.03895 39.6357 7.98715C39.6357 9.25863 39.1306 10.478 38.2315 11.3771C37.3324 12.2762 36.113 12.7813 34.8415 12.7813Z" fill="#FC5252"/>
</svg>
