<svg width="135" height="95" viewBox="0 0 135 95" fill="none" xmlns="http://www.w3.org/2000/svg">
<path d="M134.224 29.3954C133.564 28.5946 132.579 28.1272 131.545 28.1272H118.407C115.165 19.6242 110.941 11.293 106.139 8.14816C89.5303 -2.71605 45.4758 -2.71605 28.8668 8.14816C24.0621 11.2964 19.8554 19.6379 16.5958 28.1272H3.45721C2.41331 28.1272 1.43163 28.5946 0.778331 29.3954C0.121575 30.1928 -0.141128 31.2479 0.0731822 32.2618L2.01925 41.6379C2.35109 43.236 3.7683 44.3771 5.40328 44.3771H9.29542C5.53809 48.687 3.71645 54.114 3.69226 59.5444C3.66806 66.2533 6.22941 72.3161 10.9131 76.6054C10.965 76.6501 11.0168 76.681 11.0652 76.7257V89.8446C11.0652 92.6869 13.3881 95 16.2501 95H28.369C31.2311 95 33.5539 92.6869 33.5539 89.8446V84.5723H101.445V89.8446C101.445 92.6869 103.768 95 106.63 95H118.749C121.604 95 123.934 92.6869 123.934 89.8446V76.9835C128.905 72.457 131.279 66.2293 131.31 60.0118C131.331 54.3958 129.427 48.7695 125.448 44.3702H129.599C131.241 44.3702 132.658 43.2292 132.983 41.6275L134.933 32.255C135.133 31.2479 134.881 30.1997 134.224 29.3954ZM34.5598 16.7577C47.7986 8.09317 87.2005 8.09317 100.432 16.7577C103.004 18.435 106.312 25.2161 109.344 33.5198H25.6556C28.6801 25.2195 31.9881 18.4418 34.5598 16.7577ZM19.0534 60.8367C19.0534 55.2344 23.6231 50.6977 29.2539 50.6977C34.8916 50.6977 39.4544 55.2344 39.4544 60.8367C39.4544 66.4389 34.8916 70.9791 29.2539 70.9791C23.6231 70.9791 19.0534 66.4389 19.0534 60.8367ZM105.88 70.9791C100.249 70.9791 95.6796 66.4389 95.6796 60.8367C95.6796 55.2344 100.249 50.6977 105.88 50.6977C111.518 50.6977 116.081 55.2344 116.081 60.8367C116.081 66.4389 111.511 70.9791 105.88 70.9791Z" fill="#E0E0E0"/>
</svg>
