<svg width="62" height="62" viewBox="0 0 62 62" fill="none" xmlns="http://www.w3.org/2000/svg">
<circle cx="31" cy="31" r="29.5" stroke="#BDBDBD" stroke-width="3"/>
<path d="M48.3316 21.0032L45.0852 17.6834C44.6401 17.2279 44.0987 17 43.4624 17C42.8254 17 42.2841 17.2279 41.8389 17.6834L26.1793 33.7214L19.1612 26.5201C18.7156 26.0644 18.1746 25.8368 17.5382 25.8368C16.9014 25.8368 16.3604 26.0644 15.9148 26.5201L12.6684 29.84C12.2227 30.2956 12 30.8491 12 31.5002C12 32.1507 12.2227 32.7047 12.6684 33.1603L24.5562 45.3165C25.0015 45.7724 25.5427 46 26.1793 46C26.8157 46 27.3569 45.7718 27.8025 45.3165L48.3316 24.3233C48.7768 23.8676 49 23.3142 49 22.6631C49.0003 22.0124 48.7768 21.459 48.3316 21.0032Z" fill="#BDBDBD"/>
</svg>
