<svg width="36" height="36" viewBox="0 0 36 36" fill="none" xmlns="http://www.w3.org/2000/svg">
<path d="M18 0C8.06161 0 0 8.06161 0 18C0 27.9384 8.06161 36 18 36C27.9384 36 36 27.9384 36 18C36 8.06161 27.9384 0 18 0ZM24.654 20.3886H17.4028C16.9336 20.3886 16.5498 20.1327 16.2938 19.7488L11.6019 11.346C11.2607 10.7488 11.4739 9.93839 12.1137 9.59716C12.7536 9.25592 13.5213 9.46919 13.8626 10.109L18.1706 17.8294H24.654C25.3791 17.8294 25.9336 18.3839 25.9336 19.109C25.9336 19.8341 25.3365 20.3886 24.654 20.3886Z" fill="#BDBDBD"/>
</svg>
