<svg width="32" height="45" viewBox="0 0 32 45" fill="none" xmlns="http://www.w3.org/2000/svg">
<path d="M17.6539 0.857534C17.2736 0.320107 16.6557 0 16 0C15.3428 0 14.7264 0.318639 14.3432 0.857534C10.2514 6.61212 0 21.7482 0 28.8772C0 37.7814 7.16211 45 15.9985 45C24.8364 45 32 37.7814 32 28.8772C32.0015 21.7482 21.7457 6.61212 17.6539 0.857534ZM10.3811 38.0032C9.9439 38.5274 9.31439 38.799 8.68051 38.799C8.17778 38.799 7.66776 38.6258 7.251 38.2733C0.942806 32.9196 3.11985 25.0124 3.21603 24.6761C3.55701 23.4882 4.7796 22.8069 5.9643 23.1461C7.14171 23.4853 7.82077 24.7246 7.48707 25.9081C7.41858 26.1651 6.0561 31.4043 10.1158 34.8491C11.0514 35.6449 11.1723 37.0561 10.3811 38.0032ZM14.7483 42.4509C13.447 42.4509 12.3876 41.3834 12.3876 40.0721C12.3876 38.7564 13.447 37.6919 14.7483 37.6919C16.0539 37.6919 17.1089 38.7579 17.1089 40.0721C17.1089 41.3863 16.0525 42.4509 14.7483 42.4509Z" fill="#000000" />
</svg>
