<svg width="51" height="37" viewBox="0 0 51 37" fill="none" xmlns="http://www.w3.org/2000/svg">
<path d="M0 3.52381C0 1.57867 1.8463 0 4.12121 0H46.8788C49.1537 0 51 1.57867 51 3.52381C51 5.46895 49.1537 7.04762 46.8788 7.04762H4.12121C1.8463 7.04762 0 5.46895 0 3.52381ZM46.8788 14.9762H4.12121C1.8463 14.9762 0 16.5549 0 18.5C0 20.4451 1.8463 22.0238 4.12121 22.0238H46.8788C49.1537 22.0238 51 20.4451 51 18.5C51 16.5549 49.1558 14.9762 46.8788 14.9762ZM36.0277 29.9524H4.12121C1.8463 29.9524 0 31.531 0 33.4762C0 35.4213 1.8463 37 4.12121 37H36.0277C38.3026 37 40.1489 35.4213 40.1489 33.4762C40.1489 31.531 38.3047 29.9524 36.0277 29.9524Z" fill="#4F4F4F"/>
</svg>
