<svg width="125" height="125" viewBox="0 0 125 125" fill="none" xmlns="http://www.w3.org/2000/svg">
<path d="M107.333 45.8333C107.333 65.2789 96.0523 84.8457 84.6249 99.6494C78.9273 107.03 73.2274 113.184 68.9515 117.492C66.8142 119.646 65.0341 121.337 63.7901 122.488C63.2567 122.981 62.8219 123.376 62.4998 123.664C62.1778 123.376 61.743 122.981 61.2096 122.488C59.9655 121.337 58.1855 119.646 56.0481 117.492C51.7723 113.184 46.0724 107.03 40.3748 99.6494C28.9474 84.8457 17.6665 65.2789 17.6665 45.8333C17.6665 21.0723 37.7388 1 62.4998 1C87.2609 1 107.333 21.0723 107.333 45.8333Z" fill="#219580" stroke="white" stroke-width="2"/>
<path d="M93 45.5C93 62.3444 79.3444 76 62.5 76C45.6556 76 32 62.3444 32 45.5C32 28.6556 45.6556 15 62.5 15C79.3444 15 93 28.6556 93 45.5Z" fill="#F2F2F2"/>
</svg>
