<svg width="55" height="55" viewBox="0 0 55 55" fill="none" xmlns="http://www.w3.org/2000/svg">
<path d="M27.4995 0C12.3373 0 0 12.3373 0 27.5005C0 42.6637 12.3373 55 27.4995 55C42.6627 55 55 42.6637 55 27.5005C55 12.3373 42.6637 0 27.4995 0ZM27.4995 50.5667C14.7801 50.5667 4.43235 40.2189 4.43235 27.4995C4.43235 14.7801 14.7811 4.43235 27.4995 4.43235C40.2199 4.43235 50.5686 14.7801 50.5686 27.4995C50.5686 40.2189 40.2199 50.5667 27.4995 50.5667Z" fill="#219580"/>
<path d="M37.8413 25.2838H17.1597C15.9363 25.2838 14.944 26.2761 14.944 27.4995C14.944 28.7229 15.9363 29.7162 17.1597 29.7162H37.8413C39.0647 29.7162 40.057 28.7229 40.057 27.4995C40.057 26.2761 39.0647 25.2838 37.8413 25.2838Z" fill="#219580"/>
</svg>
