<svg width="66" height="66" viewBox="0 0 66 66" fill="none" xmlns="http://www.w3.org/2000/svg">
<path d="M15.8219 43.6603C17.9782 41.5315 20.6701 41.5315 22.8127 43.6603C24.4471 45.2809 26.0815 46.9015 27.6884 48.5496C28.1279 49.0028 28.4987 49.0989 29.0343 48.7968C30.0919 48.22 31.2181 47.753 32.2344 47.1213C36.9728 44.141 40.942 40.3092 44.458 35.9967C46.2022 33.8542 47.7542 31.5607 48.8392 28.9787C49.059 28.4568 49.0178 28.1134 48.592 27.6877C46.9576 26.1083 45.3644 24.4877 43.7575 22.8671C41.5188 20.6147 41.5188 17.9778 43.7713 15.7117C45.0485 14.4207 46.3258 13.1571 47.6031 11.8661C48.9216 10.5477 50.2264 9.21549 51.5586 7.91077C53.7149 5.80947 56.4068 5.80947 58.5494 7.9245C60.1975 9.54511 61.7769 11.2069 63.4525 12.8001C65.0045 14.2696 65.7874 16.0687 65.9522 18.17C66.2131 21.5898 65.3753 24.8173 64.1942 27.9624C61.7769 34.4723 58.0961 40.2543 53.6325 45.5556C47.6031 52.7247 40.4063 58.3968 31.9872 62.4896C28.1965 64.3299 24.2685 65.7445 19.9972 65.978C17.058 66.1428 14.5034 65.4012 12.457 63.1076C11.0561 61.5419 9.47668 60.1136 7.99337 58.6166C5.79588 56.3917 5.78215 53.6998 7.9659 51.5024C10.5754 48.8792 13.1987 46.2697 15.8219 43.6603Z" fill="#219580"/>
<path d="M18.4452 32.7143L13.3772 31.8491C14.1738 27.1933 16.3713 22.9769 19.7087 19.6258C23.2385 16.0962 27.7021 13.8713 32.619 13.1846L33.3332 18.2799C29.5288 18.8155 26.0677 20.5323 23.3346 23.2653C20.7525 25.8473 19.0632 29.116 18.4452 32.7143Z" fill="#219580"/>
<path d="M10.5205 10.685C16.3713 4.83436 23.7741 1.13992 31.946 0L32.6602 5.0953C25.6008 6.08415 19.2006 9.28416 14.1463 14.3245C9.35307 19.1177 6.20791 25.1744 5.06796 31.8353L0 30.9701C1.33223 23.2516 4.97182 16.2473 10.5205 10.685Z" fill="#219580"/>
</svg>
