<svg width="55" height="55" viewBox="0 0 55 55" fill="none" xmlns="http://www.w3.org/2000/svg">
<path d="M27.5002 0C12.3364 0 0 12.3377 0 27.5005C0 42.6623 12.3364 55 27.5 55C42.6627 55 55 42.6623 55 27.5005C55.0002 12.3377 42.6629 0 27.5002 0ZM27.5002 49.8956C15.148 49.8956 5.10087 39.8501 5.10087 27.5005C5.10087 15.1479 15.148 5.10239 27.5002 5.10239C39.8523 5.10239 49.8995 15.1479 49.8995 27.5005C49.8995 39.8501 39.8513 49.8956 27.5002 49.8956Z" fill="#219580"/>
<path d="M40.1217 25.1632H29.8366V14.8785C29.8366 13.5875 28.7913 12.5411 27.5002 12.5411C26.2091 12.5411 25.1626 13.5864 25.1626 14.8785V25.163H14.8776C13.5865 25.163 12.5411 26.2084 12.5411 27.5005C12.5411 28.7915 13.5865 29.8368 14.8776 29.8368H25.1617V40.1224C25.1617 41.4136 26.208 42.4587 27.4993 42.4587C28.7904 42.4587 29.8368 41.4134 29.8368 40.1224V29.8368H40.121C41.4123 29.8368 42.4585 28.7915 42.4585 27.5005C42.4593 26.2084 41.4128 25.1632 40.1217 25.1632Z" fill="#219580"/>
</svg>
