<svg width="51" height="50" viewBox="0 0 51 50" fill="none" xmlns="http://www.w3.org/2000/svg">
<path fill-rule="evenodd" clip-rule="evenodd" d="M6.57133 7.27518L15.5176 12.4341L35.5215 0.88623C36.544 1.32511 37.5322 1.82911 38.4808 2.39303L15.5176 15.6951L4.7854 9.49479C5.33987 8.72149 5.93629 7.98051 6.57133 7.27518ZM3.37416 11.6911L15.5176 18.6937L40.9116 4.03422C41.7025 4.63703 42.4573 5.2851 43.1721 5.97461L15.5176 21.9354L2.11437 14.2016C2.48931 13.339 2.91027 12.5011 3.37416 11.6911ZM1.14538 16.8135L15.5176 25.103L45.0911 8.04071C45.695 8.76711 46.2596 9.52762 46.7815 10.3189L15.5176 28.3443L0.442741 19.6461C0.624089 18.6817 0.85939 17.7364 1.14538 16.8135ZM0.0584668 22.6714L15.5176 31.605L48.1697 12.6918C49.9785 16.2044 51 20.1913 51 24.4175C51 38.5464 39.5832 50.0001 25.5 50.0001C11.4167 50.0001 0 38.5464 0 24.4175C0 23.8307 0.019698 23.2484 0.0584668 22.6714Z" fill="white"/>
</svg>
