<svg width="70" height="92" viewBox="0 0 70 92" fill="none" xmlns="http://www.w3.org/2000/svg">
<path d="M64.3045 65.3398C65.2031 62.4161 65.6667 59.432 65.6667 56.435C65.6667 53.1219 65.1352 49.8464 64.0869 46.7001L59.7669 33.7401C58.3107 29.3751 54.8179 26.1072 50.4193 24.999C48.8318 24.6001 46.813 24.1787 44.5833 23.8185V19.1667H46.5C48.6151 19.1667 50.3333 17.4466 50.3333 15.3335V7.66673C50.3333 3.43832 46.8932 0 42.6667 0H27.3335C23.107 0 19.6667 3.43832 19.6667 7.66673V15.3335C19.6667 17.4466 21.3851 19.1667 23.5 19.1667H25.4167V23.8185C23.187 24.1787 21.168 24.6001 19.5807 24.999C15.1821 26.1072 11.6893 29.3751 10.2331 33.7401L5.91309 46.7001C4.86497 49.8464 4.33327 53.1221 4.33327 56.435C4.33327 59.4322 4.79705 62.4161 5.69566 65.3398C2.72848 66.0087 0.5 68.6552 0.5 71.8207C0.5 74.8792 1.08398 82.3342 2.43919 85.7091L3.28156 87.8167C4.2959 90.3586 6.72168 92 9.45814 92H60.8225C63.3568 92 65.6367 90.5925 66.7747 88.322C68.699 84.4662 69.5 76.401 69.5 72.94V71.8207C69.5 68.6552 67.2717 66.0089 64.3045 65.3398ZM16.8253 50.3368L21.1454 37.3712C21.3438 36.7704 21.8305 36.2893 22.3845 36.1508C25.3867 35.3984 30.0099 34.5 35 34.5C39.9939 34.5 44.6133 35.3984 47.6119 36.151C48.1659 36.2913 48.6562 36.7705 48.8548 37.377L53.1749 50.3369C53.8338 52.3097 54.1669 54.3612 54.1669 56.4352C54.1669 59.4113 53.4631 62.3929 52.1416 65.0453L49.2598 70.7185C45.4264 69.8226 40.4485 69 35 69C29.5515 69 24.5736 69.8226 20.7405 70.7184L17.8697 65.0657C16.5369 62.3947 15.8333 59.4112 15.8333 56.4352C15.8333 54.361 16.1666 52.3097 16.8253 50.3368ZM54.7732 82.3175C54.5261 82.3998 48.5702 84.3335 35 84.3335C21.4298 84.3335 15.4739 82.4 15.2268 82.3175C14.2236 81.9844 13.6846 80.9043 14.0177 79.9011C14.3471 78.8941 15.4441 78.3495 16.4324 78.6807C16.4884 78.6976 22.1637 80.5 35 80.5C47.8363 80.5 53.5116 78.6976 53.5676 78.6807C54.5522 78.3493 55.649 78.8941 55.9823 79.9011C56.3154 80.9043 55.7764 81.9842 54.7732 82.3175Z" fill="#E0E0E0"/>
</svg>
